<svg xmlns="http://www.w3.org/2000/svg" viewBox="0 0 572.96 574.13"><defs><style>.cls-1,.cls-2{fill:#58595b;}.cls-2{stroke:#58595b;stroke-miterlimit:10;stroke-width:4px;}</style></defs><g id="Layer_2" data-name="Layer 2"><g id="Layer_3" data-name="Layer 3"><rect class="cls-1" x="86.48" y="249.73" width="23.94" height="100" rx="11.97"/><rect class="cls-1" x="274.51" width="23.94" height="180" rx="11.97"/><rect class="cls-1" x="462.54" y="249.73" width="23.94" height="100" rx="11.97"/><rect class="cls-1" x="420.25" y="253.42" width="23.94" height="120" rx="11.97" transform="translate(-55.32 531.03) rotate(-60)"/><rect class="cls-1" x="127.82" y="253.42" width="23.94" height="120" rx="11.97" transform="translate(-61.74 591.2) rotate(-120)"/><rect class="cls-1" x="179.77" y="272.14" width="23.94" height="239.37" rx="11.97" transform="translate(-243.46 361.96) rotate(-60)"/><rect class="cls-1" x="367.7" y="272.94" width="23.94" height="239.37" rx="11.97" transform="translate(229.48 917.73) rotate(-120)"/><rect class="cls-1" x="368.5" y="-53.78" width="23.94" height="239.37" rx="11.97" transform="translate(133.16 362.44) rotate(-60)"/><rect class="cls-1" x="179.83" y="-52.46" width="23.94" height="239.37" rx="11.97" transform="translate(229.48 266.93) rotate(-120)"/><rect class="cls-1" x="86.48" y="109.49" width="23.94" height="80" rx="11.97"/><rect class="cls-1" x="462.54" y="108.88" width="23.94" height="80" rx="11.97"/><rect class="cls-1" x="418.44" y="40.77" width="30" height="280" rx="15" transform="matrix(-0.09, -1, 1, -0.09, 291.13, 628.32)"/><rect class="cls-1" x="124.79" y="39.37" width="30" height="280" rx="15" transform="translate(-51.08 303) rotate(-85)"/><rect class="cls-1" x="542.96" y="154.88" width="30" height="100" rx="15"/><rect class="cls-1" x="91.77" y="155.29" width="30" height="220" rx="15" transform="translate(-177.12 299.75) rotate(-75)"/><rect class="cls-1" x="448.37" y="155.29" width="30" height="220" rx="15" transform="translate(327.05 781.53) rotate(-105)"/><rect class="cls-1" y="154.88" width="30" height="100" rx="15"/><rect class="cls-1" x="314.54" y="140.42" width="30" height="200" rx="15" transform="translate(-76.06 196.98) rotate(-30)"/><rect class="cls-1" x="229.54" y="140.42" width="30" height="200" rx="15" transform="translate(336.1 570.91) rotate(-150)"/><rect class="cls-1" x="272.04" y="218.21" width="30" height="200" rx="15" transform="translate(-31.17 605.25) rotate(-90)"/><path class="cls-1" d="M103.07,515.37V503.79h43.85v11.58Zm0,57.76V561.51h43.85v11.62Zm15.43,0V503.79h12.89v69.34Z"/><path class="cls-1" d="M162.37,515.66V503.79h52.44v11.87Zm19.78,57.47V503.79H195v69.34Z"/><path class="cls-1" d="M224.26,573.13l20-69.34H260.1l20,69.34H266.2l-13.58-52.39h-.87l-13.58,52.39ZM234.36,560V548.08h35.16V560Z"/><path class="cls-1" d="M357.06,573.13V503.79H370v69.34ZM366,539.05v-4.79h19.23v4.79Zm3.32-3.32v-5.18h9.42c3,0,5.31-.66,6.86-2a7.22,7.22,0,0,0,2.32-5.83,6.1,6.1,0,0,0-2.47-5.3c-1.64-1.19-4.11-1.78-7.39-1.78h-8.55l-1.17-11.87h10.2q10.93,0,16.92,4.47t6,12.72q0,7.08-4.63,10.91t-13.14,3.84Zm0,37.4V561.26h12.35c3.51,0,6.25-.83,8.2-2.49a8.63,8.63,0,0,0,2.93-7,8.27,8.27,0,0,0-3.07-6.88q-3.09-2.45-8.74-2.45H369.46l-1.17-5.17h19.14q9,0,13.94,4.39t4.91,12.41q0,9.07-5.69,14.06t-16.14,5Z"/><path class="cls-1" d="M450.19,574.11q-33.15,0-33.15-35.75,0-16.93,8.35-26.24t23.63-9.3A31.51,31.51,0,0,1,461.23,505a17.37,17.37,0,0,1,8,6.32l-7.22,9.47a14.57,14.57,0,0,0-5.59-4.22,18.15,18.15,0,0,0-7.35-1.49,16.79,16.79,0,0,0-13.45,5.93q-5.06,5.94-5.06,16.83,0,23.93,21.24,23.92a35.45,35.45,0,0,0,14-2.93l2.24,11.92A48.71,48.71,0,0,1,450.19,574.11Z"/><line class="cls-2" x1="316.51" y1="574.13" x2="316.51" y2="502.83"/></g></g></svg>